HIERARCHY
ROOT Zhanghao:Solving:Hips
{
	OFFSET 0.000000 0.000000 0.000000
	CHANNELS 6 Xposition Yposition Zposition Xrotation Yrotation Zrotation
	JOINT Zhanghao:Solving:Spine
	{
		OFFSET 0.000000 -9.563771 2.098718
		CHANNELS 6 Xposition Yposition Zposition Xrotation Yrotation Zrotation
		JOINT Zhanghao:Solving:Spine1
		{
			OFFSET 0.000000 -9.562875 1.686196
			CHANNELS 6 Xposition Yposition Zposition Xrotation Yrotation Zrotation
			JOINT Zhanghao:Solving:Spine2
			{
				OFFSET 0.000000 -9.673449 0.846319
				CHANNELS 6 Xposition Yposition Zposition Xrotation Yrotation Zrotation
				JOINT Zhanghao:Solving:Spine3
				{
					OFFSET 0.000000 -9.710396 0.000000
					CHANNELS 6 Xposition Yposition Zposition Xrotation Yrotation Zrotation
					JOINT Zhanghao:Solving:Neck
					{
						OFFSET 0.000000 -12.484798 -1.248478
						CHANNELS 6 Xposition Yposition Zposition Xrotation Yrotation Zrotation
						JOINT Zhanghao:Solving:Neck1
						{
							OFFSET 0.000000 -5.748112 -0.502893
							CHANNELS 6 Xposition Yposition Zposition Xrotation Yrotation Zrotation
							JOINT Zhanghao:Solving:Head
							{
								OFFSET 0.000000 -5.682407 -1.001961
								CHANNELS 6 Xposition Yposition Zposition Xrotation Yrotation Zrotation
								JOINT Zhanghao:Solving:HeadEnd
								{
									OFFSET 0.000000 -9.728077 0.000002
									CHANNELS 6 Xposition Yposition Zposition Xrotation Yrotation Zrotation
									End Site
									{
										OFFSET 0.000000 -9.728081 0.000002
									}
								}
							}
						}
					}
					JOINT Zhanghao:Solving:RightShoulder
					{
						OFFSET 0.000000 -8.917713 -5.270916
						CHANNELS 6 Xposition Yposition Zposition Xrotation Yrotation Zrotation
						JOINT Zhanghao:Solving:RightArm
						{
							OFFSET -18.341640 -0.000008 0.000000
							CHANNELS 6 Xposition Yposition Zposition Xrotation Yrotation Zrotation
							JOINT Zhanghao:Solving:RightForeArm
							{
								OFFSET -27.519978 -0.000008 0.000000
								CHANNELS 6 Xposition Yposition Zposition Xrotation Yrotation Zrotation
								JOINT Zhanghao:Solving:RightHand
								{
									OFFSET -22.582626 -0.000008 0.000000
									CHANNELS 6 Xposition Yposition Zposition Xrotation Yrotation Zrotation
									JOINT Zhanghao:Solving:RightHandThumb1
									{
										OFFSET -4.292824 2.781349 -3.192099
										CHANNELS 6 Xposition Yposition Zposition Xrotation Yrotation Zrotation
										End Site
										{
											OFFSET -6.150612 -0.000004 -6.207481
										}
									}
									JOINT Zhanghao:Solving:RightHandMiddle1
									{
										OFFSET -11.447525 -0.000004 0.073382
										CHANNELS 6 Xposition Yposition Zposition Xrotation Yrotation Zrotation
										End Site
										{
											OFFSET -8.738586 -0.000004 0.000000
										}
									}
								}
							}
						}
					}
					JOINT Zhanghao:Solving:LeftShoulder
					{
						OFFSET 0.000000 -8.917713 -5.270916
						CHANNELS 6 Xposition Yposition Zposition Xrotation Yrotation Zrotation
						JOINT Zhanghao:Solving:LeftArm
						{
							OFFSET 18.341640 -0.000008 0.000000
							CHANNELS 6 Xposition Yposition Zposition Xrotation Yrotation Zrotation
							JOINT Zhanghao:Solving:LeftForeArm
							{
								OFFSET 27.519978 -0.000008 0.000000
								CHANNELS 6 Xposition Yposition Zposition Xrotation Yrotation Zrotation
								JOINT Zhanghao:Solving:LeftHand
								{
									OFFSET 22.582626 -0.000008 0.000000
									CHANNELS 6 Xposition Yposition Zposition Xrotation Yrotation Zrotation
									JOINT Zhanghao:Solving:LeftHandThumb1
									{
										OFFSET 4.292824 2.781349 -3.192099
										CHANNELS 6 Xposition Yposition Zposition Xrotation Yrotation Zrotation
										End Site
										{
											OFFSET 6.150612 -0.000004 -6.207481
										}
									}
									JOINT Zhanghao:Solving:LeftHandMiddle1
									{
										OFFSET 11.447525 -0.000004 0.073382
										CHANNELS 6 Xposition Yposition Zposition Xrotation Yrotation Zrotation
										End Site
										{
											OFFSET 8.738586 -0.000004 0.000000
										}
									}
								}
							}
						}
					}
				}
			}
		}
	}
	JOINT Zhanghao:Solving:RightUpLeg
	{
		OFFSET -9.107882 0.000000 0.000000
		CHANNELS 6 Xposition Yposition Zposition Xrotation Yrotation Zrotation
		JOINT Zhanghao:Solving:RightLeg
		{
			OFFSET 0.000000 38.746075 -0.000006
			CHANNELS 6 Xposition Yposition Zposition Xrotation Yrotation Zrotation
			JOINT Zhanghao:Solving:RightFoot
			{
				OFFSET 0.000000 37.141575 -0.000006
				CHANNELS 6 Xposition Yposition Zposition Xrotation Yrotation Zrotation
				JOINT Zhanghao:Solving:RightForeFoot
				{
					OFFSET 0.000000 3.208229 -0.000000
					CHANNELS 6 Xposition Yposition Zposition Xrotation Yrotation Zrotation
					JOINT Zhanghao:Solving:RightToeBase
					{
						OFFSET 0.000000 0.000000 -12.564445
						CHANNELS 6 Xposition Yposition Zposition Xrotation Yrotation Zrotation
						JOINT Zhanghao:Solving:RightToeBaseEnd
						{
							OFFSET 0.000000 0.000000 -4.358174
							CHANNELS 6 Xposition Yposition Zposition Xrotation Yrotation Zrotation
							End Site
							{
								OFFSET 0.000000 -4.358177 0.000000
							}
						}
					}
				}
			}
		}
	}
	JOINT Zhanghao:Solving:LeftUpLeg
	{
		OFFSET 9.107882 0.000000 0.000000
		CHANNELS 6 Xposition Yposition Zposition Xrotation Yrotation Zrotation
		JOINT Zhanghao:Solving:LeftLeg
		{
			OFFSET 0.000000 38.746075 -0.000006
			CHANNELS 6 Xposition Yposition Zposition Xrotation Yrotation Zrotation
			JOINT Zhanghao:Solving:LeftFoot
			{
				OFFSET 0.000000 37.141575 -0.000006
				CHANNELS 6 Xposition Yposition Zposition Xrotation Yrotation Zrotation
				JOINT Zhanghao:Solving:LeftForeFoot
				{
					OFFSET 0.000000 3.208229 -0.000000
					CHANNELS 6 Xposition Yposition Zposition Xrotation Yrotation Zrotation
					JOINT Zhanghao:Solving:LeftToeBase
					{
						OFFSET 0.000000 0.000000 -12.564445
						CHANNELS 6 Xposition Yposition Zposition Xrotation Yrotation Zrotation
						JOINT Zhanghao:Solving:LeftToeBaseEnd
						{
							OFFSET 0.000000 0.000000 -4.448388
							CHANNELS 6 Xposition Yposition Zposition Xrotation Yrotation Zrotation
							End Site
							{
								OFFSET 0.000000 -4.448387 0.000000
							}
						}
					}
				}
			}
		}
	}
}
MOTION
Frames: 6
Frame Time: 0.041667
-5.880026 -104.361519 -81.871490 82.044663 -1.768591 -2.252201 0.000002 -9.563788 2.098710 13.761131 -0.160145 1.414419 0.000002 -9.562885 1.686218 -1.743401 -0.051194 -0.188562 -0.000000 -9.673437 0.846314 -2.653737 -0.825479 -0.529831 -0.000000 -9.710402 -0.000001 0.088292 0.300929 -1.147560 0.000001 -12.484796 -1.248469 -4.928726 0.145254 1.293552 0.000001 -5.748102 -0.502910 3.422137 5.656203 1.105514 0.000001 -5.682411 -1.001926 7.318576 0.297050 0.910752 0.000001 -9.728039 0.000010 -0.000002 0.000000 -0.000000 -0.000000 -8.917690 -5.270903 -0.000008 13.625960 -1.525316 -18.341625 -0.000005 0.000014 12.133592 -31.586025 -70.132451 -27.519966 -0.000003 -0.000021 -12.150701 -13.262680 -2.827812 -22.582624 -0.000006 -0.000001 0.118162 -4.912456 1.379563 -4.292846 2.781345 -3.192099 -0.000001 0.000005 0.000001 -11.447547 -0.000016 0.073389 0.000000 0.000004 0.000001 0.000001 -8.917690 -5.270903 -0.000003 -9.878665 0.379792 18.341618 0.000031 0.000004 11.732440 32.937914 74.787184 27.519983 -0.000004 -0.000008 -1.903230 19.699777 0.641790 22.582596 -0.000004 -0.000012 -0.373256 2.524662 8.412942 4.292789 2.781354 -3.192102 0.000005 -0.000007 0.000003 11.447517 -0.000013 0.073368 0.000002 0.000002 -0.000000 -9.107886 0.000002 -0.000008 18.815411 9.593931 3.569684 -0.000005 38.746078 0.000006 -21.093969 -0.000001 -0.000001 -0.000001 37.141582 -0.000029 13.027348 33.870464 -13.168355 -0.000013 3.208222 -0.000006 -0.000001 0.000004 -0.000001 -0.000002 -0.000005 -12.564448 15.688946 -0.000003 0.000001 0.000008 0.000007 -4.358176 -0.000002 0.000002 -0.000001 9.107883 -0.000017 0.000006 20.786154 0.617556 0.002237 0.000001 38.746082 -0.000011 -17.997864 -0.000000 -0.000001 0.000001 37.141586 -0.000009 7.837819 -23.562257 -0.490816 0.000009 3.208221 -0.000003 -0.000000 -0.000000 -0.000000 0.000006 0.000007 -12.564451 14.087610 -0.000008 0.000000 0.000004 -0.000007 -4.448372 0.000002 -0.000001 -0.000001 
-5.866736 -104.360275 -81.872482 82.045127 -1.791654 -2.253960 0.000001 -9.563771 2.098695 13.742788 -0.164366 1.403939 0.000000 -9.562872 1.686192 -1.748597 -0.050230 -0.192848 -0.000000 -9.673449 0.846333 -2.648505 -0.815004 -0.525872 0.000000 -9.710388 0.000009 0.089014 0.309069 -1.152065 -0.000000 -12.484777 -1.248478 -4.985771 0.122774 1.258559 0.000001 -5.748076 -0.502893 3.454155 5.629047 1.100346 -0.000001 -5.682425 -1.001965 7.375108 0.294883 0.910029 -0.000002 -9.728062 0.000017 -0.000002 0.000000 -0.000000 0.000002 -8.917736 -5.270909 -0.000010 13.538897 -1.384878 -18.341629 -0.000011 -0.000012 12.269094 -31.694608 -70.204325 -27.519985 -0.000002 -0.000012 -12.231505 -13.264068 -2.847459 -22.582609 0.000002 0.000011 0.126968 -4.943603 1.473006 -4.292855 2.781350 -3.192089 0.000002 0.000005 -0.000001 -11.447556 -0.000021 0.073370 0.000001 -0.000003 -0.000000 0.000002 -8.917728 -5.270909 -0.000006 -9.804056 0.283420 18.341623 -0.000012 0.000004 11.709239 32.631160 74.919396 27.519985 -0.000002 -0.000000 -2.267825 19.868057 0.771104 22.582598 -0.000001 0.000014 -0.360128 2.427359 8.441651 4.292811 2.781361 -3.192100 -0.000002 0.000005 0.000004 11.447526 0.000003 0.073395 -0.000006 -0.000000 0.000001 -9.107881 -0.000002 -0.000027 18.806578 9.619889 3.574036 0.000001 38.746078 -0.000008 -21.073939 0.000001 -0.000001 0.000003 37.141582 -0.000004 13.029273 33.869399 -13.174805 -0.000003 3.208229 -0.000004 0.000000 0.000003 0.000003 0.000009 -0.000012 -12.564468 15.652304 0.000006 -0.000002 0.000013 -0.000008 -4.358185 0.000001 0.000000 0.000003 9.107882 0.000007 -0.000021 20.778566 0.627015 0.006666 -0.000000 38.746075 -0.000031 -17.986618 -0.000000 -0.000001 0.000001 37.141575 -0.000012 7.828500 -23.545001 -0.477887 0.000001 3.208221 -0.000019 0.000000 0.000001 -0.000000 -0.000011 -0.000003 -12.564474 14.073968 0.000001 -0.000000 -0.000007 -0.000008 -4.448386 -0.000002 -0.000002 0.000000 
-5.852106 -104.358688 -81.875282 82.048809 -1.803861 -2.260974 0.000000 -9.563781 2.098700 13.733765 -0.168368 1.401229 0.000001 -9.562870 1.686195 -1.761472 -0.050153 -0.194935 0.000000 -9.673436 0.846333 -2.648608 -0.813480 -0.520413 -0.000000 -9.710394 -0.000002 0.080826 0.316604 -1.162558 -0.000000 -12.484792 -1.248492 -5.054547 0.101454 1.222942 0.000001 -5.748167 -0.502880 3.498410 5.597072 1.091490 -0.000000 -5.682405 -1.001977 7.429864 0.293550 0.905004 0.000000 -9.728039 0.000006 -0.000001 -0.000000 -0.000000 -0.000002 -8.917690 -5.270935 -0.000010 13.448865 -1.234738 -18.341629 -0.000024 0.000009 12.421274 -31.810486 -70.257525 -27.519981 -0.000004 -0.000004 -12.323781 -13.278146 -2.872563 -22.582626 -0.000001 0.000006 0.125544 -4.830843 1.490403 -4.292852 2.781349 -3.192120 0.000003 0.000009 -0.000006 -11.447557 -0.000014 0.073372 -0.000003 0.000001 -0.000002 -0.000001 -8.917690 -5.270935 -0.000005 -9.733756 0.181637 18.341625 0.000026 0.000010 11.730442 32.420285 75.051143 27.519978 -0.000010 -0.000013 -2.687282 20.035148 0.921265 22.582598 -0.000002 0.000003 -0.341544 2.369947 8.203359 4.292828 2.781349 -3.192096 -0.000007 -0.000010 0.000004 11.447556 -0.000003 0.073367 -0.000001 -0.000004 0.000001 -9.107884 0.000003 -0.000020 18.798156 9.682784 3.578271 -0.000009 38.746075 -0.000018 -21.073321 0.000001 -0.000001 0.000004 37.141590 0.000001 13.046886 33.831904 -13.176584 -0.000003 3.208221 -0.000012 0.000001 -0.000003 0.000000 0.000024 -0.000004 -12.564455 15.660328 0.000002 -0.000003 0.000005 -0.000007 -4.358174 0.000001 -0.000003 -0.000003 9.107882 -0.000007 -0.000005 20.766471 0.627223 0.022339 0.000000 38.746075 -0.000004 -17.970636 0.000000 -0.000001 0.000003 37.141575 -0.000011 7.826016 -23.528251 -0.491856 -0.000004 3.208221 -0.000031 -0.000000 -0.000003 0.000000 -0.000006 0.000006 -12.564436 14.067955 -0.000007 0.000001 -0.000007 -0.000007 -4.448381 0.000001 -0.000000 0.000001 
-5.837430 -104.356056 -81.878716 82.051527 -1.808459 -2.264248 -0.000000 -9.563777 2.098736 13.720632 -0.171713 1.397592 0.000000 -9.562851 1.686179 -1.776005 -0.049954 -0.198291 0.000000 -9.673463 0.846340 -2.641782 -0.812048 -0.523039 -0.000000 -9.710391 0.000011 0.073421 0.322883 -1.175096 0.000001 -12.484784 -1.248522 -5.144761 0.066987 1.213469 -0.000000 -5.748110 -0.502902 3.551047 5.556157 1.072093 0.000001 -5.682427 -1.001925 7.492189 0.292071 0.897697 0.000000 -9.728100 -0.000002 -0.000001 0.000000 -0.000000 0.000001 -8.917732 -5.270951 -0.000009 13.354631 -1.047379 -18.341633 -0.000011 0.000005 12.538090 -31.923686 -70.355566 -27.519989 0.000002 -0.000028 -12.292542 -13.226859 -2.854216 -22.582602 -0.000010 0.000014 0.128181 -4.860791 1.512293 -4.292813 2.781342 -3.192104 -0.000002 0.000005 -0.000005 -11.447533 -0.000017 0.073372 0.000000 -0.000002 -0.000000 0.000000 -8.917728 -5.270951 -0.000004 -9.662239 0.052377 18.341629 -0.000002 -0.000001 11.741843 32.313656 75.233885 27.519989 -0.000004 -0.000020 -3.311010 20.125518 1.140379 22.582611 -0.000001 0.000027 -0.325890 2.417987 7.678517 4.292818 2.781352 -3.192094 -0.000003 -0.000003 0.000002 11.447525 -0.000009 0.073386 0.000004 -0.000001 0.000000 -9.107881 -0.000025 0.000016 18.781372 9.677097 3.594960 0.000000 38.746086 -0.000003 -21.042442 0.000000 -0.000002 0.000002 37.141602 -0.000016 13.037469 33.844673 -13.186122 -0.000012 3.208214 0.000008 -0.000000 0.000001 -0.000002 0.000008 -0.000013 -12.564452 15.675967 -0.000002 -0.000003 0.000003 -0.000008 -4.358185 -0.000003 0.000002 0.000000 9.107882 -0.000026 0.000013 20.752297 0.611222 0.038578 0.000003 38.746078 -0.000033 -17.945417 -0.000000 -0.000001 -0.000000 37.141602 -0.000017 7.815881 -23.513876 -0.500480 -0.000007 3.208221 -0.000024 -0.000000 -0.000003 -0.000000 -0.000010 -0.000005 -12.564456 14.080313 -0.000003 0.000000 -0.000008 -0.000008 -4.448389 -0.000002 -0.000002 -0.000000 
-5.824090 -104.354744 -81.882599 82.062585 -1.802388 -2.265369 0.000000 -9.563782 2.098709 13.701896 -0.176027 1.394713 0.000001 -9.562866 1.686197 -1.784928 -0.049990 -0.202063 0.000001 -9.673457 0.846310 -2.637985 -0.814069 -0.525092 0.000000 -9.710399 -0.000015 0.053369 0.322313 -1.185155 -0.000002 -12.484763 -1.248521 -5.214079 0.037952 1.204370 -0.000001 -5.748091 -0.502879 3.578729 5.508220 1.053820 -0.000001 -5.682407 -1.001962 7.537022 0.290041 0.885778 -0.000002 -9.728069 0.000001 -0.000001 0.000000 -0.000000 -0.000001 -8.917702 -5.270959 -0.000008 13.277922 -0.856454 -18.341637 0.000013 0.000013 12.684756 -32.093748 -70.425992 -27.519983 0.000002 -0.000004 -12.288893 -13.227778 -2.853536 -22.582624 -0.000012 -0.000003 0.124659 -4.682329 1.526659 -4.292831 2.781347 -3.192089 0.000001 0.000002 -0.000000 -11.447541 -0.000015 0.073377 0.000001 -0.000002 -0.000001 0.000000 -8.917694 -5.270959 -0.000003 -9.595921 -0.067224 18.341621 0.000002 0.000020 11.813675 32.140633 75.369758 27.519970 -0.000007 -0.000029 -3.932695 20.325357 1.367929 22.582600 -0.000009 -0.000009 -0.306053 2.410413 7.238686 4.292823 2.781358 -3.192098 -0.000004 -0.000005 -0.000001 11.447539 -0.000009 0.073375 -0.000002 -0.000001 -0.000001 -9.107882 -0.000012 -0.000006 18.759227 9.723734 3.601079 -0.000003 38.746082 0.000009 -21.027998 0.000000 -0.000001 0.000006 37.141594 0.000000 13.038467 33.788676 -13.190317 0.000009 3.208221 0.000002 -0.000000 0.000000 0.000002 -0.000002 -0.000010 -12.564445 15.695677 -0.000008 0.000001 0.000025 -0.000007 -4.358158 0.000001 -0.000002 0.000001 9.107883 -0.000012 -0.000013 20.735177 0.625519 0.048399 0.000002 38.746078 0.000015 -17.929540 0.000000 -0.000001 0.000004 37.141579 -0.000023 7.812434 -23.529891 -0.494025 0.000005 3.208221 -0.000013 0.000000 0.000001 0.000000 -0.000004 0.000006 -12.564481 14.086279 0.000003 -0.000001 0.000001 -0.000008 -4.448377 -0.000002 -0.000001 0.000000 
-5.813546 -104.346283 -81.887054 82.070460 -1.779767 -2.257644 0.000000 -9.563767 2.098710 13.693921 -0.173658 1.390822 0.000000 -9.562887 1.686188 -1.810241 -0.049995 -0.208349 0.000000 -9.673453 0.846334 -2.636620 -0.829425 -0.536940 0.000000 -9.710390 0.000000 0.044812 0.321235 -1.182862 -0.000002 -12.484776 -1.248468 -5.275627 -0.006309 1.204178 0.000000 -5.748105 -0.502908 3.587285 5.464574 1.024278 0.000000 -5.682411 -1.001991 7.567288 0.289018 0.856918 -0.000000 -9.728062 0.000016 -0.000001 -0.000000 -0.000000 -0.000000 -8.917728 -5.270881 -0.000008 13.182822 -0.663764 -18.341623 -0.000012 -0.000006 12.757423 -32.174637 -70.548143 -27.519970 -0.000006 0.000006 -12.171629 -13.105502 -2.799895 -22.582571 -0.000012 0.000015 0.119885 -4.696213 1.463873 -4.292843 2.781344 -3.192112 -0.000001 -0.000002 -0.000005 -11.447558 -0.000005 0.073376 -0.000001 0.000001 -0.000003 0.000000 -8.917728 -5.270881 -0.000004 -9.580780 -0.230646 18.341627 -0.000005 0.000022 11.845058 32.076211 75.529516 27.519991 -0.000004 0.000003 -4.431584 20.457448 1.551618 22.582626 -0.000008 -0.000006 -0.310910 2.546319 6.964073 4.292829 2.781343 -3.192105 0.000005 -0.000010 0.000006 11.447541 -0.000019 0.073361 0.000005 -0.000000 0.000001 -9.107880 -0.000001 0.000003 18.739310 9.748206 3.603350 0.000003 38.746075 -0.000014 -21.002888 0.000001 -0.000002 0.000003 37.141586 0.000008 13.038198 33.736377 -13.189163 0.000024 3.208221 -0.000001 -0.000000 0.000002 0.000001 -0.000010 -0.000004 -12.564463 15.664993 0.000003 0.000000 0.000002 -0.000008 -4.358181 0.000000 0.000000 0.000000 9.107882 0.000013 0.000007 20.728219 0.604615 0.056183 0.000001 38.746082 0.000004 -17.911348 -0.000000 -0.000001 0.000002 37.141586 -0.000024 7.800949 -23.535310 -0.508471 -0.000003 3.208221 -0.000004 -0.000000 -0.000001 -0.000000 -0.000013 -0.000001 -12.564462 14.070928 -0.000003 0.000000 -0.000007 -0.000009 -4.448380 -0.000004 -0.000005 0.000001 
